# xmcd
#
# Track frame offsets:
#	150
#	20532
#	35160
#	49390
#	71502
#	102502
#	120640
#	136490
#	157362
#	176222
#	205090
#
# Disc length: 3740 seconds
#
# Revision: 0
# Processed by: cddbd v1.4PL0 Copyright (c) Steve Scherf et al.
# Submitted via: dBpowerAMP V4.0
#
DISCID=ab0e9a0b
DTITLE=the carter brothers - since you've come into my life
DYEAR=2000
DGENRE=Blues
TTITLE0=since you've come into my life
TTITLE1=earthquake
TTITLE2=sucker of circumstace
TTITLE3=what did I do
TTITLE4=I love life
TTITLE5=move over heartache
TTITLE6=roast possum
TTITLE7=my god is a good god
TTITLE8=main man 
TTITLE9=doormat blues
TTITLE10=disappointed
EXTD=
EXTT0=
EXTT1=
EXTT2=
EXTT3=
EXTT4=
EXTT5=
EXTT6=
EXTT7=
EXTT8=
EXTT9=
EXTT10=
PLAYORDER=
